<?xml version="1.0" encoding="utf-8"?>
<!-- Generator: Adobe Illustrator 19.1.0, SVG Export Plug-In . SVG Version: 6.00 Build 0)  -->
<svg version="1.1" id="Layer_1" xmlns="http://www.w3.org/2000/svg" xmlns:xlink="http://www.w3.org/1999/xlink" x="0px" y="0px"
	 viewBox="0 0 51 17" style="enable-background:new 0 0 51 17;" xml:space="preserve">
<style type="text/css">
	.st0{fill:#FFFFFF;}
</style>
<g>
	<path class="st0" d="M19.3,1.3c2.2,0.2,2.8,2.1,2.8,2.8c0,2.1-0.7,3.8-3.8,3.7V1.3C18.3,1.3,19,1.3,19.3,1.3 M6.6,1.3
		c2.2,0.2,2.8,2.1,2.8,2.8c0,2.1-0.7,3.8-3.8,3.7V1.3C5.7,1.3,6.4,1.3,6.6,1.3 M5.6,8.5h0.9c2-0.1,3.2,1.1,3.3,3.2
		c0.1,2.1-0.7,3.9-2.9,3.9c-0.9,0-1.3-0.3-1.3-1.4V8.5z M0,16.4h7.2c5-0.2,6.4-1.8,6.4-4.4c0-2.7-2.4-3.5-3.9-3.9
		c0.9-0.2,3.4-1.2,3.4-3.6c-0.1-3.5-4.6-4.1-6.2-4H0v0.5C1,1,2,0.7,2,2.4l0,11.9c0,1.4-0.8,1.5-2,1.7V16.4z M26,13.6
		c0.6,1.3,2.3,3.3,5,3.4c1.5,0,2.9-0.4,4.5-1.9c0.6,0.5,1.4,1.4,2.7,1.4c0.4,0,1.5-0.2,2.3-1.3c0.8-1,0.9-1.7,0.9-1.7L41,13.2
		c-0.3,0.5-0.7,0.9-1.2,0.9c-1,0-1-0.4-2.2-1.5c1.2-1.7,1.1-2.6,1.7-3.5c0.6-0.9,1.2-1.4,2.2-1.5V7.2h-4v0.4
		c0.8-0.1,0.9,0.6,0.8,1.1c-0.2,1.1-1.3,3.2-1.5,3.1c-1.7-1.8-3.8-5.7-3.8-5.7c1.5-0.8,2.1-2.6,2.1-3c0-1.5-0.8-2.8-3-3.1
		c-1.3-0.2-3.9,1-3.9,3.3c0,1.1,0.6,2.1,1.3,3.5c-1.8,0.7-3.2,2.1-3.8,3.9C25.3,9,23.3,8.4,22.1,8h0c0.9-0.3,3.8-0.9,3.7-3.5
		c-0.2-3.5-4.6-4.1-6.2-4h-6.9v0.5c1,0.1,2-0.2,2,1.5l0,12c0,1.4-0.8,1.5-2,1.6l0,0.4h7.2C23.8,16.5,25.4,15.4,26,13.6 M18.3,8.6
		h0.9c2.3-0.2,3.1,1.5,3.2,3.2c0.1,2.1-0.7,3.9-2.8,3.9c-0.9,0-1.3-0.3-1.3-1.4V8.6z M29.4,12.1c-1.1-2.1-0.3-3.6,0.8-4.5
		c0,0,2.1,4.3,4.3,6.5C33.6,14.8,31,15.2,29.4,12.1 M31.6,2.8c0-0.6,0.5-1.3,1.3-1.3c1.4,0,1.7,1.5,1.3,2.3
		c-0.6,1.3-1.5,1.6-1.5,1.5C32.3,4.5,31.6,3.6,31.6,2.8 M37.5,0.5v4h0.4c0.2-2,1.3-3.3,2.5-3.3l2,0v13.3c0.1,1.1-0.9,1.5-2.1,1.5
		l0,0.4h7.9l0-0.4C47,15.9,46,15.9,46,14.7l0-13.5h1.9c1.2,0,2.7,1,2.7,3.3H51v-4H37.5z"/>
</g>
</svg>
