<svg xmlns="http://www.w3.org/2000/svg" xmlns:xlink="http://www.w3.org/1999/xlink" preserveAspectRatio="xMidYMid" width="78" height="10" viewBox="0 0 78 10">
  <defs>
    <style>
      .cls-1 {
        fill: #fff;
        fill-rule: evenodd;
      }
    </style>
  </defs>
  <path d="M74.013,9.384 L72.584,9.384 L71.198,5.476 C71.001,4.930 70.819,4.426 70.693,3.935 L70.651,3.935 C70.511,4.440 70.357,4.916 70.161,5.462 L68.760,9.384 L67.360,9.384 L64.096,0.097 L66.001,0.097 L67.696,5.406 C67.850,5.883 67.990,6.401 68.144,6.961 L68.172,6.961 C68.326,6.401 68.480,5.925 68.648,5.420 L69.895,1.708 L69.321,0.097 L71.029,0.097 L72.808,5.322 C72.991,5.840 73.187,6.401 73.327,6.947 L73.369,6.947 C73.509,6.387 73.621,5.897 73.789,5.350 L75.386,0.097 L77.123,0.097 L74.013,9.384 ZM58.237,9.468 C55.519,9.468 53.586,7.577 53.586,4.748 C53.586,1.946 55.505,0.013 58.237,0.013 C60.968,0.013 62.887,1.960 62.887,4.748 C62.887,7.577 60.926,9.468 58.237,9.468 ZM58.237,1.428 C56.528,1.428 55.379,2.647 55.379,4.748 C55.379,6.835 56.528,8.054 58.237,8.054 C59.932,8.054 61.094,6.835 61.094,4.748 C61.094,2.703 59.988,1.428 58.237,1.428 ZM45.556,4.076 C45.150,3.557 44.827,3.095 44.519,2.661 L44.491,2.661 C44.519,3.039 44.519,3.571 44.519,4.090 L44.519,9.328 L42.838,9.328 L42.838,0.097 L44.505,0.097 L48.441,5.140 C48.862,5.686 49.198,6.149 49.478,6.569 L49.506,6.569 C49.478,6.079 49.478,5.518 49.478,5.014 L49.478,0.097 L51.173,0.097 L51.173,9.328 L49.632,9.328 L45.556,4.076 ZM35.382,9.328 L33.687,9.328 L33.687,5.672 L30.536,0.097 L32.385,0.097 L34.542,4.174 L34.570,4.174 L36.713,0.097 L38.534,0.097 L35.382,5.686 L35.382,9.328 ZM31.377,9.328 L26.418,9.328 L26.418,0.097 L28.099,0.097 L28.099,7.956 L31.377,7.956 L31.377,9.328 ZM20.351,6.149 L19.959,6.149 L19.959,9.328 L18.278,9.328 L18.278,0.097 L20.505,0.097 C21.360,0.097 22.032,0.223 22.579,0.490 C23.531,0.966 24.077,1.862 24.077,3.123 C24.077,4.188 23.615,5.294 22.312,5.826 C21.808,6.023 21.178,6.149 20.351,6.149 ZM21.584,1.708 C21.318,1.554 20.940,1.470 20.435,1.470 L19.959,1.470 L19.959,4.776 L20.463,4.776 C20.912,4.776 21.276,4.706 21.542,4.566 C22.060,4.314 22.312,3.809 22.312,3.123 C22.312,2.521 22.074,2.002 21.584,1.708 ZM12.211,6.149 L11.819,6.149 L11.819,9.328 L10.138,9.328 L10.138,0.097 L12.365,0.097 C13.220,0.097 13.892,0.223 14.439,0.490 C15.391,0.966 15.937,1.862 15.937,3.123 C15.937,4.188 15.475,5.294 14.172,5.826 C13.668,6.023 13.038,6.149 12.211,6.149 ZM13.444,1.708 C13.178,1.554 12.800,1.470 12.295,1.470 L11.819,1.470 L11.819,4.776 L12.323,4.776 C12.772,4.776 13.136,4.706 13.402,4.566 C13.920,4.314 14.172,3.809 14.172,3.123 C14.172,2.521 13.934,2.002 13.444,1.708 ZM5.873,7.017 L2.581,7.017 L1.713,9.328 L-0.010,9.328 L3.562,0.055 L4.850,0.055 L8.548,9.328 L6.769,9.328 L5.873,7.017 ZM4.710,3.809 C4.458,3.109 4.332,2.689 4.248,2.381 L4.220,2.381 C4.136,2.703 3.996,3.109 3.744,3.823 L3.071,5.644 L5.355,5.644 L4.710,3.809 Z" class="cls-1"/>
</svg>
