<svg xmlns="http://www.w3.org/2000/svg" width="127.281" height="21.907" viewBox="0 0 127.281 21.907">
  <defs>
    <style>
      .cls-1 {
        fill-rule: evenodd;
      }
    </style>
  </defs>
  <path id="are_low.svg" data-name="are low.svg" class="cls-1" d="M58.5,109.863H63l1.976-5.214h7.254l2.04,5.214h4.7L70.257,88.424H66.824Zm7.74-8.776,1.3-3.562a32.507,32.507,0,0,0,1.069-3.206H68.67c0.162,0.713.453,1.619,0.972,3.174l1.231,3.595H66.241Zm14.313,8.776h4.437V101.8H86.61c0.518,0.13,1.263.94,2.332,2.948l2.818,5.116h5.084l-3.465-6.12c-1.133-1.976-2.073-3.142-2.72-3.5V100.18A5.588,5.588,0,0,0,94.8,94.707a5.463,5.463,0,0,0-3.4-5.376,10.6,10.6,0,0,0-4.469-.81h-6.38v21.341ZM84.991,98.2V92.116h1.684a3.856,3.856,0,0,1,2.073.453A2.8,2.8,0,0,1,90.2,95.161a2.929,2.929,0,0,1-1.425,2.591,4.282,4.282,0,0,1-2.137.453H84.991Zm14,11.658H111.3v-3.594h-7.869v-5.506H110.2V97.2h-6.768V92.116H110.2l1.134-3.595H98.992v21.341Zm21.478,0h11.886v-3.594h-7.449V88.522H120.47v21.341Zm23.345,0.324c6.38,0,10.881-4.4,10.881-10.946,0-6.445-4.469-10.946-10.881-10.946s-10.881,4.469-10.881,10.946C132.934,105.75,137.4,110.187,143.815,110.187Zm0-3.692c-3.66,0-6.153-2.558-6.153-7.254,0-4.663,2.493-7.222,6.153-7.222,3.692,0,6.153,2.591,6.153,7.222C149.968,103.937,147.474,106.5,143.815,106.5Zm18.843,3.53h3.692l3.141-8.744c0.356-1.068.712-2.137,1-3.173h0.065c0.259,1,.68,2.105,1.068,3.206l3.142,8.711h3.789l7.222-21.5h-4.5l-3.562,11.853c-0.356,1.2-.616,2.2-0.875,3.368h-0.1c-0.291-1.134-.68-2.267-1.1-3.433L171.6,88.522h-4.4l1.36,3.789-2.785,8.323c-0.357,1-.68,2.04-0.972,3.141h-0.1c-0.292-1.134-.551-2.137-0.874-3.141L159.97,88.522h-4.955Z" transform="translate(-58.5 -88.281)"/>
</svg>
