<svg xmlns="http://www.w3.org/2000/svg" viewBox="0 0 250.55 20.21"><title>Asset 3</title><g id="Layer_2" data-name="Layer 2"><g id="Layer_1-2" data-name="Layer 1"><path d="M14.22,12.68c0,1.53,0,2.4.06,3.48h-.06c-.66-1-1.6-2.34-2.86-4L2.14.15H0V19.91H2.23V7c0-1.56,0-2.4-.09-3.39H2.2c.69,1,1.6,2.25,2.8,3.81l9.58,12.47h1.87V.15H14.22ZM31,0c-5.57,0-9.67,4.14-9.67,10.13S25.46,20.21,31,20.21s9.67-3.9,9.67-10.07C40.67,4.23,36.63,0,31,0Zm0,18.29c-4.43,0-7.32-3.27-7.32-8.16S26.58,1.92,31,1.92c4.7,0,7.32,3.57,7.32,8.22C38.32,15,35.43,18.29,31,18.29Zm31.51-6.15c-.45,1.38-.84,2.73-1.23,4.29h-.06c-.39-1.5-1-3.12-1.39-4.35L55.83.15H53.42L54.6,3.51l-3,8.55c-.51,1.47-1,2.76-1.45,4.41h-.06c-.39-1.56-.93-3.15-1.33-4.44L45,.15H42.49L49.18,20H51l3.28-9.26c.6-1.74,1-2.82,1.39-4.26h.09c.42,1.44.84,2.67,1.39,4.26L60.29,20h1.78L68.63.15H66.28ZM77.9,19.91h2.23V.15H77.9ZM87,4.8c0-2.13,1.81-2.91,3.58-2.91A8.84,8.84,0,0,1,94.8,3V.9A10.26,10.26,0,0,0,90.49,0c-3.7,0-5.84,2.22-5.84,5,0,5.91,8.73,5.34,8.73,10.07,0,2.34-1.87,3.21-4,3.21A8,8,0,0,1,85.07,17l-.93,1.74a9.18,9.18,0,0,0,5.21,1.5c3.79,0,6.35-2,6.35-5.28C95.7,8.79,87,9.26,87,4.8ZM101.37,2h5.69v17.9h2.23V2h5.6l.66-1.86H101.37Zm29.88,6.84h-10.9V.15h-2.23V19.91h2.23V10.73h10.9v9.17h2.23V.15h-2.23Zm7.63,1.86h6.54V8.88h-6.54V2h6.66l.69-1.86h-9.58V19.91h9.76V18.05h-7.53Zm14-8.7h5.69v17.9h2.23V2h5.6l.66-1.86H152.9Zm16.75,17.9h2.23V.15h-2.23ZM188.24,8.34c-.78,1.26-1.36,2.16-1.84,3h-.06c-.48-.81-1-1.59-1.84-2.85L179,.15h-2.08V19.91h2.23V7.2c0-1,0-2.34-.06-3.27h.06a17,17,0,0,0,1.36,2.19l5.33,7.95H187l4.91-7.8c.39-.6,1-1.59,1.42-2.4h.06c-.06,1-.06,2.34-.06,3.36V19.91h2.23V.15h-2.08Zm13.17,2.37h6.54V8.88h-6.54V2h6.66l.69-1.86h-9.58V19.91h9.76V18.05h-7.53Zm14-8.7h5.69v17.9h2.23V2h5.6l.66-1.86H215.43Zm25.46-2c-5.57,0-9.67,4.14-9.67,10.13s4.13,10.07,9.67,10.07,9.67-3.9,9.67-10.07C250.55,4.23,246.52,0,240.88,0Zm0,18.29c-4.43,0-7.32-3.27-7.32-8.16s2.89-8.22,7.32-8.22c4.7,0,7.32,3.57,7.32,8.22C248.2,15,245.31,18.29,240.88,18.29Z"/></g></g></svg>