<svg xmlns="http://www.w3.org/2000/svg" viewBox="0 0 184.21 64.53"><title>Asset 4</title><g id="Layer_2" data-name="Layer 2"><g id="Layer_1-2" data-name="Layer 1"><path d="M15.12,22.77H5.65V.29H0v27H15.12Zm28-8.9C43.16,5.7,37.47,0,29.32,0S15.47,5.66,15.47,13.87s5.69,13.87,13.84,13.87S43.16,22.15,43.16,13.87ZM29.32,23.05c-4.66,0-7.83-3.24-7.83-9.19s3.17-9.15,7.83-9.15S37.14,8,37.14,13.87,34,23.05,29.32,23.05Zm31.31,4.68a18.39,18.39,0,0,0,9-2.22l-1.57-4.43a12.72,12.72,0,0,1-6.76,2c-5.32,0-8.65-3.73-8.65-9.07,0-5,2.84-9.27,8.78-9.27a15,15,0,0,1,7.13,1.76V1.31A18.31,18.31,0,0,0,61.33,0c-9,0-14.67,6.32-14.67,14.07C46.66,22,51.52,27.73,60.63,27.73ZM94.24.29H87.77l-8.94,11.2H78.7V.29H73.06v27H78.7V15.63h.12L88,27.32h6.8l-11.33-14Zm17.55,0h-5.64v27h5.64ZM122.47,12.8a39.82,39.82,0,0,0-.12-4h.08c.95,1.23,1.81,2.42,2.8,3.73l11.66,14.81H142V.29H136.4V13.74c0,1.27,0,3.08.08,4.47h-.08c-.78-1.19-1.69-2.38-2.72-3.69L122.47.29h-5.65v27h5.65ZM161,20.72h9.23l2.6,6.6h6L167.76.16h-4.37L152.8,27.32h5.73Zm3.26-9a41.07,41.07,0,0,0,1.36-4.06h.08c.21.9.58,2.05,1.24,4l1.57,4.55h-5.89ZM19.57,50.74c0,1.27,0,3.08.08,4.47h-.08c-.78-1.19-1.69-2.38-2.72-3.69L5.65,37.29H0v27H5.65V49.8a39.82,39.82,0,0,0-.12-4H5.6c.95,1.23,1.81,2.42,2.8,3.73L20.07,64.32h5.15v-27H19.57Zm25.87-8.9,1.44-4.55H31.19v27H46.84V59.77h-10v-7h8.61V48.28H36.83V41.84ZM76.58,52.3c-.45,1.52-.78,2.79-1.11,4.27h-.12c-.37-1.44-.87-2.87-1.4-4.35L68.79,37.29h-5.6l1.73,4.8L61.37,52.63c-.45,1.27-.87,2.58-1.24,4H60c-.37-1.44-.7-2.71-1.11-4L54,37.29h-6.3l9.72,27.24h4.7l4-11.08c.45-1.35.91-2.71,1.28-4h.08c.33,1.27.87,2.67,1.36,4.06l4,11h4.82l9.19-27.24H81.11Zm34.67-.16v-.08a7.08,7.08,0,0,0,5.27-6.93,6.92,6.92,0,0,0-4.33-6.81,13.54,13.54,0,0,0-5.69-1H98.39v27H104V54.11h2.06c.66.16,1.61,1.19,3,3.73l3.58,6.48h6.47l-4.41-7.75C113.26,54.07,112.07,52.59,111.24,52.14ZM108.85,49a5.47,5.47,0,0,1-2.72.57H104V41.84h2.14a4.92,4.92,0,0,1,2.64.57,3.55,3.55,0,0,1,1.85,3.28A3.71,3.71,0,0,1,108.85,49Zm22.49-11.81L120.75,64.32h5.73l2.51-6.6h9.23l2.6,6.6h6L135.71,37.16Zm-.74,16,1.65-4.51a41,41,0,0,0,1.36-4.06h.08c.21.9.58,2.05,1.24,4l1.57,4.55Zm12.84-11.36h7.91V64.32H157V41.84h7.17l1.4-4.55H143.44Zm30.72,11h8.61V48.28h-8.61V41.84h8.61l1.44-4.55h-15.7v27h15.66V59.77h-10Z"/></g></g></svg>