<svg xmlns="http://www.w3.org/2000/svg" viewBox="0 0 245.11 62.04"><title>Asset 6</title><g id="Layer_2" data-name="Layer 2"><g id="Layer_2-2" data-name="Layer 2"><path d="M14.38.15h-4.2L0,24.67H5.51l2.42-6h8.87l2.5,6H25ZM9.47,14.63l1.58-4.07a35.46,35.46,0,0,0,1.31-3.67h.08c.2.81.55,1.85,1.19,3.63l1.51,4.11ZM40.73,1.3a13.77,13.77,0,0,0-5.9-1H28V24.67h5.43V16.48h.91a16.64,16.64,0,0,0,5.59-.85,7.39,7.39,0,0,0,5.19-7.3A7.15,7.15,0,0,0,40.73,1.3ZM37.48,11.89a6.76,6.76,0,0,1-2.81.48H33.44v-8h1.15a6.25,6.25,0,0,1,3,.56,3.74,3.74,0,0,1,1.9,3.41A3.5,3.5,0,0,1,37.48,11.89Zm18,4.59h.91a16.64,16.64,0,0,0,5.59-.85,7.39,7.39,0,0,0,5.19-7.3,7.15,7.15,0,0,0-4.4-7,13.77,13.77,0,0,0-5.9-1H50V24.67h5.43Zm0-12.11h1.15a6.24,6.24,0,0,1,3,.56,3.74,3.74,0,0,1,1.9,3.41,3.5,3.5,0,0,1-2,3.56,6.76,6.76,0,0,1-2.81.48H55.43Zm31.1,16.19H77.42V.26H72V24.67H86.53ZM96.34.26H90.92V24.67h5.43ZM115.2,25a18.61,18.61,0,0,0,8.67-2l-1.51-4a12.8,12.8,0,0,1-6.5,1.78c-5.11,0-8.32-3.37-8.32-8.19,0-4.52,2.73-8.37,8.44-8.37a15.2,15.2,0,0,1,6.85,1.59V1.19a18.6,18.6,0,0,0-7-1.19c-8.64,0-14.1,5.7-14.1,12.7S106.45,25,115.2,25Zm19.41-6.33h8.87l2.5,6h5.74L141.07.15h-4.2L126.69,24.67h5.51Zm3.13-8.15a35.47,35.47,0,0,0,1.31-3.67h.08c.2.81.55,1.85,1.19,3.63l1.51,4.11h-5.66Zm14.38-6.19h7.61v20.3h5.43V4.37h6.89L173.4.26H152.13Zm24.66,20.3h5.43V.26h-5.43ZM201.74,0c-7.84,0-13.31,5.11-13.31,12.52S193.9,25,201.74,25s13.31-5,13.31-12.52S209.59,0,201.74,0Zm0,20.82c-4.48,0-7.53-2.93-7.53-8.3s3-8.26,7.53-8.26,7.53,3,7.53,8.26S206.22,20.82,201.74,20.82ZM239.68.26V12.41c0,1.15,0,2.78.08,4h-.08c-.75-1.07-1.62-2.15-2.61-3.33L226.29.26h-5.43V24.67h5.43V11.56a33.79,33.79,0,0,0-.12-3.63h.08c.91,1.11,1.74,2.19,2.69,3.37l11.21,13.37h5V.26ZM14,38.3a13.77,13.77,0,0,0-5.9-1H1.27V61.67H6.7V53.48h.91a16.64,16.64,0,0,0,5.59-.85,7.39,7.39,0,0,0,5.19-7.3A7.15,7.15,0,0,0,14,38.3ZM10.74,48.89a6.76,6.76,0,0,1-2.81.48H6.7v-8H7.85a6.25,6.25,0,0,1,3,.56,3.74,3.74,0,0,1,1.9,3.41A3.5,3.5,0,0,1,10.74,48.89Zm25.68,1.78v-.07c2.93-.85,5.07-3.07,5.07-6.26a6.23,6.23,0,0,0-4.16-6.15,13.75,13.75,0,0,0-5.47-.93h-7.8V61.67h5.43V52.45h2c.63.15,1.54,1.07,2.85,3.37l3.45,5.85H44l-4.24-7C38.35,52.41,37.21,51.07,36.41,50.67Zm-2.3-2.85a5.54,5.54,0,0,1-2.61.52h-2v-7h2.06a5,5,0,0,1,2.54.52,3.17,3.17,0,0,1,1.78,3A3.31,3.31,0,0,1,34.12,47.82ZM59.95,37c-7.84,0-13.31,5.11-13.31,12.52S52.11,62,59.95,62s13.31-5,13.31-12.52S67.79,37,59.95,37Zm0,20.82c-4.48,0-7.53-2.93-7.53-8.3s3.05-8.26,7.53-8.26,7.53,3,7.53,8.26S64.43,57.82,59.95,57.82Zm32.19,0c-5.11,0-8.32-3.37-8.32-8.19,0-4.52,2.73-8.37,8.44-8.37a15.2,15.2,0,0,1,6.85,1.59V38.19a18.61,18.61,0,0,0-7-1.19C83.51,37,78,42.7,78,49.7S82.71,62,91.47,62a18.61,18.61,0,0,0,8.67-2l-1.51-4A12.8,12.8,0,0,1,92.14,57.82Zm25.79-16.45,1.39-4.11H104.23V61.67h15.05V57.56h-9.63v-6.3h8.28V47.19h-8.28V41.37Zm10.68,2.15c0-1.7,1.47-2.26,3.13-2.26a15.36,15.36,0,0,1,6.46,1.59V38.3a16.14,16.14,0,0,0-6.61-1.3c-5.62,0-8.75,3.3-8.75,7,0,7.48,11.17,6.93,11.17,11.33,0,1.85-2,2.52-4,2.52A11.14,11.14,0,0,1,124,56L122,59.82a14.92,14.92,0,0,0,8.2,2.22c5.47,0,9.63-2.74,9.63-7.19C139.78,47.07,128.61,47.67,128.61,43.52Zm18.92,0c0-1.7,1.47-2.26,3.13-2.26a15.36,15.36,0,0,1,6.46,1.59V38.3A16.14,16.14,0,0,0,150.5,37c-5.62,0-8.75,3.3-8.75,7,0,7.48,11.17,6.93,11.17,11.33,0,1.85-2,2.52-4,2.52A11.14,11.14,0,0,1,142.94,56l-2.06,3.82a14.92,14.92,0,0,0,8.2,2.22c5.47,0,9.63-2.74,9.63-7.19C158.7,47.07,147.53,47.67,147.53,43.52Z"/></g></g></svg>