<svg xmlns="http://www.w3.org/2000/svg" viewBox="0 0 185.51 28.54"><title>Asset 5</title><g id="Layer_2" data-name="Layer 2"><g id="Layer_2-2" data-name="Layer 2"><path d="M2.51,12H9.88V10H2.51V2.26H10L10.8.17H0V22.4H11V20.31H2.51ZM30,14.27c0,1.72,0,2.7.07,3.91H30c-.75-1.15-1.8-2.63-3.23-4.52L16.37.17H14V22.4h2.51V7.9c0-1.75,0-2.7-.1-3.81h.07c.78,1.11,1.8,2.53,3.16,4.28l10.8,14H32.5V.17H30Zm8.45,8.4c0,2.23-.54,3.71-3.06,3.71a5.42,5.42,0,0,1-1.73-.27l-.44,2.13a8.29,8.29,0,0,0,2.21.3c4,0,5.53-2.16,5.53-5.36V.17H38.43ZM56.24,0C50,0,45.34,4.66,45.34,11.4S50,22.74,56.24,22.74s10.9-4.39,10.9-11.34C67.14,4.76,62.59,0,56.24,0Zm0,20.58c-5,0-8.25-3.68-8.25-9.18s3.26-9.24,8.25-9.24c5.3,0,8.25,4,8.25,9.24C64.49,16.9,61.23,20.58,56.24,20.58Zm19.55-9.51h-.07L69.88.17H67.1l7.37,13.36V22.4h2.48V13.56L84.21.17H81.5ZM99,.1,90.52,22.4h2.65l2.21-6h9l2.24,6h2.68L100.7.1Zm4.55,14.24h-7.4l2.31-6.41c.71-2,1.12-3,1.36-3.85h.07c.27.84.65,1.89,1.32,3.85Zm17.23,8.06h2.51V12h7.37V10H123.3V2.26h7.5l.81-2.09H120.79ZM140.9.1l-8.49,22.3h2.65l2.21-6h9l2.24,6h2.68L142.59.1Zm4.55,14.24H138l2.31-6.41c.71-2,1.12-3,1.36-3.85h.07c.27.84.65,1.89,1.32,3.85Zm9.88-8.94c0-2.4,2-3.27,4-3.27a10,10,0,0,1,4.79,1.21V1a11.58,11.58,0,0,0-4.86-1c-4.18,0-6.59,2.5-6.59,5.63,0,6.65,9.85,6,9.85,11.34,0,2.63-2.11,3.61-4.52,3.61a9,9,0,0,1-4.86-1.48l-1.05,2A10.37,10.37,0,0,0,158,22.74c4.28,0,7.16-2.23,7.16-5.94C165.17,9.89,155.33,10.43,155.33,5.4ZM169.52.17V2.26h6.42V22.4h2.51V2.26h6.32l.75-2.09Z"/></g></g></svg>