<svg xmlns="http://www.w3.org/2000/svg" viewBox="0 0 181.59 61.4"><title>Asset 11</title><g id="Layer_2" data-name="Layer 2"><g id="Layer_1-2" data-name="Layer 1"><path d="M7.09,10.83c0-1.51,1.3-2.35,3.41-2.35a15.58,15.58,0,0,1,7,1.8V5.54a16.27,16.27,0,0,0-5.3-1.43V0H7.9V4.24C3.32,5,.81,8.18.81,11.25c0,8.06,12,7.81,12,12.21,0,2.06-2,2.6-4.22,2.6a12.79,12.79,0,0,1-6.24-2L0,28.24a15.4,15.4,0,0,0,6.82,2.31V35h4.26V30.51c4.62-.76,7.94-3.57,7.94-7.64C19,14.86,7.09,15.28,7.09,10.83Zm32.6,6V16.7c2.92-1.13,4.44-3.19,4.44-5.83,0-3.9-3-7.55-9.83-7.55a22.56,22.56,0,0,0-9.6,2.31L26.27,10a17.24,17.24,0,0,1,7.18-1.89c2.78,0,4.26,1.3,4.26,3.32,0,2.52-2.33,3.65-6.24,3.65H28.15V19.6h4.17a12.59,12.59,0,0,1,3.59.38c1.75.46,2.69,1.51,2.69,3.06,0,2.48-1.89,3.86-6.33,3.86a18.72,18.72,0,0,1-6.73-1.34L23.89,30a23.44,23.44,0,0,0,8.89,1.64C41.21,31.68,45,27.91,45,23A6,6,0,0,0,39.69,16.79ZM59.53,3.32c-6.82,0-10.86,4.91-10.86,14.18s4,14.18,10.86,14.18,11-4.91,11-14.18S66.4,3.32,59.53,3.32Zm0,23.58c-3.41,0-4.44-3.15-4.44-9.4s1-9.36,4.49-9.36S64,11.29,64,17.5,63,26.9,59.53,26.9ZM85.44,3.32c-6.82,0-10.86,4.91-10.86,14.18s4,14.18,10.86,14.18,11-4.91,11-14.18S92.31,3.32,85.44,3.32Zm0,23.58C82,26.9,81,23.75,81,17.5s1-9.36,4.49-9.36,4.44,3.15,4.44,9.36S88.9,26.9,85.44,26.9Zm36-23.58c-8.89,0-15.08,5.79-15.08,14.18s6.19,14.18,15.08,14.18S136.52,26,136.52,17.5,130.33,3.32,121.44,3.32Zm0,23.58c-5.07,0-8.53-3.32-8.53-9.4s3.46-9.36,8.53-9.36S130,11.5,130,17.5,126.51,26.9,121.44,26.9Zm20.68,4.36h6.15V19.47h9.34V14.86h-9.34V8.27h9.47l1.53-4.66H142.13Zm37.93-23,1.53-4.66H164.44V31.26h6.15V19.47h9.33V14.86h-9.33V8.27Z"/><path d="M2.89,42H.73V61.11H10v-1.8H2.89Zm13,10.21h6.34V50.43H15.9V43.79h6.45L23,42H13.74V61.11H23.2v-1.8H15.9Zm24.63,1.92c0,1.48,0,2.32.06,3.37h-.06c-.64-1-1.55-2.26-2.77-3.89L28.82,42H26.75V61.11h2.16V48.63c0-1.51,0-2.32-.09-3.28h.06c.67,1,1.55,2.18,2.72,3.68l9.28,12.07h1.81V42H40.53ZM52.65,42H48V61.11h4.53c6.95,0,10.28-4.18,10.28-9.66S59.54,42,52.65,42Zm-.12,17.32H50.2V43.79h2.28c5.58,0,8.09,3.19,8.09,7.57S58.52,59.31,52.54,59.31ZM69.74,52.2h6.34V50.43H69.74V43.79H76.2l.67-1.8H67.58V61.11H77v-1.8h-7.3Zm17.45.12v-.06a5,5,0,0,0,3.91-5A4.76,4.76,0,0,0,88.85,43a7.8,7.8,0,0,0-4.35-1H80.59V61.11h2.16V53h2.16c.58.15,1.31,1.07,2.22,2.58l3.36,5.54H93l-3.5-5.74C88.5,53.68,87.77,52.61,87.19,52.32Zm-2.63-1.13H82.75v-7.4h1.84a4.58,4.58,0,0,1,3.07.9,3.2,3.2,0,0,1,1.23,2.73,3.46,3.46,0,0,1-1.66,3.13A5.15,5.15,0,0,1,84.56,51.18Zm22,9.92h2.16V52.2h6.34V50.43h-6.34V43.79h6.45l.7-1.8h-9.31Zm15.17-8.91h6.34V50.43h-6.34V43.79h6.45l.67-1.8h-9.28V61.11h9.46v-1.8h-7.3Zm13,0h6.34V50.43h-6.34V43.79h6.45l.67-1.8h-9.28V61.11h9.46v-1.8h-7.3Zm12.63-5.72c0-2.06,1.75-2.81,3.47-2.81a8.58,8.58,0,0,1,4.12,1v-2a10,10,0,0,0-4.18-.87c-3.59,0-5.66,2.15-5.66,4.85,0,5.72,8.47,5.16,8.47,9.75,0,2.26-1.81,3.1-3.88,3.1a7.72,7.72,0,0,1-4.18-1.28l-.91,1.68a8.91,8.91,0,0,0,5.05,1.45c3.68,0,6.16-1.91,6.16-5.11C155.89,50.34,147.42,50.81,147.42,46.48Z"/></g></g></svg>