<svg xmlns="http://www.w3.org/2000/svg" viewBox="0 0 130.84 19.56"><title>Asset 7</title><g id="Layer_2" data-name="Layer 2"><g id="Layer_1-2" data-name="Layer 1"><path d="M13.66,16.92a9.29,9.29,0,0,1-3.91.78c-4.55,0-7.47-3-7.47-7.95,0-4.64,2.8-7.92,7.77-7.92A11.18,11.18,0,0,1,15.18,3V1A14.18,14.18,0,0,0,9.93,0C4,0,0,4.12,0,10c0,5.6,3.77,9.57,9.49,9.57A14.37,14.37,0,0,0,15.8,18.1V10.24H13.66Zm10.72-6.56h6.34V8.59H24.39V1.94h6.45l.67-1.8H22.23V19.27h9.46v-1.8h-7.3ZM35.06,1.94h5.52V19.27h2.16V1.94h5.43l.64-1.8H35.06ZM71.77,12.13a7.67,7.67,0,0,1-.38,2.76c-.67,1.8-2.19,2.84-4.61,2.84s-3.94-1-4.61-2.84a8.18,8.18,0,0,1-.38-2.67V.15H59.62V12.42a10,10,0,0,0,.44,3.08c.93,2.64,3.21,4.06,6.72,4.06s5.72-1.39,6.66-4a8.62,8.62,0,0,0,.5-3.13V.15H71.77ZM87.11,1A8.2,8.2,0,0,0,82.93.15H79.31V19.27h2.16V12.21h1.26a9.43,9.43,0,0,0,3.94-.73,5.53,5.53,0,0,0,3.21-5.31A5.57,5.57,0,0,0,87.11,1ZM85.7,9.84a6,6,0,0,1-2.8.58H81.47V1.94h1.46a5.46,5.46,0,0,1,2.89.64,4,4,0,0,1,1.84,3.6A3.79,3.79,0,0,1,85.7,9.84ZM113,.15H99.26v1.8h5.52V19.27h2.16V1.94h5.43ZM121.47,0c-5.4,0-9.37,4-9.37,9.81s4,9.75,9.37,9.75,9.37-3.77,9.37-9.75C130.84,4.09,126.93,0,121.47,0Zm0,17.7c-4.29,0-7.1-3.16-7.1-7.89s2.8-7.95,7.1-7.95c4.55,0,7.1,3.45,7.1,7.95C128.56,14.54,125.76,17.7,121.47,17.7Z"/></g></g></svg>